<svg xmlns="http://www.w3.org/2000/svg" xmlns:xlink="http://www.w3.org/1999/xlink" aria-hidden="true" focusable="false" width="1em" height="1em" style="-ms-transform: rotate(360deg); -webkit-transform: rotate(360deg); transform: rotate(360deg);" preserveAspectRatio="xMidYMid meet" viewBox="0 0 100 100"><path d="M83.095 47.878l-.004-.003l-32.088-32.09h-.001a2.518 2.518 0 0 0-3.562 0l-5.26 5.26L30.934 9.799a4.924 4.924 0 0 0-3.571-1.534c-2.743-.001-4.966 2.231-4.964 4.986a4.97 4.97 0 0 0 1.558 3.612L35.16 28.068L7.883 55.344a2.518 2.518 0 0 0 0 3.562l32.091 32.092a2.518 2.518 0 0 0 3.562 0l.001-.001L83.095 51.44a2.52 2.52 0 0 0 0-3.562zm-19.704 9.228H20.233l29.003-29.004l21.579 21.58l-7.424 7.424z" fill="#000000"/><path d="M91.073 73.735l-5.97-10.339c-.031-.058-.061-.117-.098-.171l-.015-.025l-.004.002a1.654 1.654 0 0 0-2.607-.102l-.016-.009l-.059.103a1.705 1.705 0 0 0-.217.375l-5.835 10.105a9.159 9.159 0 0 0-1.829 5.493a9.215 9.215 0 0 0 9.216 9.217a9.216 9.216 0 0 0 9.217-9.217a9.163 9.163 0 0 0-1.783-5.432z" fill="#000000"/></svg>
